<?xml version="1.0" standalone="no"?><!DOCTYPE svg PUBLIC "-//W3C//DTD SVG 1.1//EN" "http://www.w3.org/Graphics/SVG/1.1/DTD/svg11.dtd"><svg t="1569839880032" class="icon" viewBox="0 0 1024 1024" version="1.1" xmlns="http://www.w3.org/2000/svg" p-id="5501" xmlns:xlink="http://www.w3.org/1999/xlink" width="128" height="128"><defs><style type="text/css"></style></defs><path d="M942.1824 356.9664c-4.096-30.5152-4.608-83.0464 23.6544-100.6592 0.512-0.3072 0.9216-0.8192 1.3312-1.2288 23.1424-7.3728 39.2192-17.8176 26.624-31.744L652.0832 120.32 98.816 197.2224s-63.3856 9.0112-57.7536 107.52c3.072 53.5552 19.8656 79.872 34.6112 92.8768l-45.3632 13.7216c-12.5952 14.0288 3.3792 24.3712 26.624 31.744 0.4096 0.4096 0.8192 0.9216 1.3312 1.2288C86.6304 461.9264 86.016 514.56 81.92 544.9728c-101.6832 28.8768-65.2288 38.2976-65.2288 38.2976l22.3232 5.4272C23.2448 602.8288 7.68 629.76 10.5472 680.7552c5.632 98.4064 57.7536 105.2672 57.7536 105.2672l362.0864 117.6576L976.896 771.2768s36.5568-9.4208-65.2288-38.2976c-4.096-30.5152-4.608-83.0464 23.7568-100.6592 0.512-0.3072 0.9216-0.8192 1.3312-1.2288 23.1424-7.3728 39.2192-17.8176 26.624-31.744l-23.7568-7.168c15.872-9.5232 39.6288-34.5088 43.4176-99.328 2.56-44.6464-9.0112-70.7584-22.528-86.1184l46.8992-11.3664c0-0.1024 36.4544-9.5232-65.2288-38.4z m-457.1136-1.2288l91.9552-18.8416 310.5792-63.7952 46.2848-9.5232c-14.7456 27.0336-14.1312 64.1024-11.776 87.8592 0.512 5.4272 1.1264 10.3424 1.7408 14.0288l-50.688 12.5952-391.9872 97.4848 3.8912-119.808zM90.2144 451.4816l46.2848 9.5232 298.2912 61.3376 26.0096 5.3248 78.1312 16.0768 3.8912 119.808-402.944-100.2496-39.7312-9.8304c0.6144-3.6864 1.2288-8.704 1.7408-14.0288 2.4576-23.8592 3.1744-60.928-11.6736-87.9616zM72.2944 300.032c-0.6144-26.2144 4.096-45.1584 13.5168-54.784 6.0416-6.144 13.1072-7.3728 17.92-7.3728 2.56 0 4.4032 0.3072 4.5056 0.3072l238.3872 77.7216 118.9888 38.8096-3.8912 120.6272L128 381.8496l-17.6128-4.9152c-0.6144-0.2048-1.536-0.3072-2.1504-0.3072-1.3312-0.2048-34.4064-3.1744-35.9424-76.5952z m358.912 551.3216l-351.232-98.4064c-0.6144-0.2048-1.536-0.3072-2.1504-0.3072-1.4336-0.1024-34.4064-3.1744-36.0448-76.4928-0.6144-26.2144 4.096-45.1584 13.5168-54.784 6.0416-6.144 13.1072-7.3728 17.92-7.3728 2.56 0 4.4032 0.3072 4.5056 0.3072l357.376 116.5312-3.8912 120.5248z m460.3904-123.904c0.512 5.4272 1.1264 10.3424 1.7408 14.0288L450.6624 851.5584l3.8912-119.808 94.6176-19.456 13.9264 3.3792 52.4288-16.9984 241.4592-49.664 46.2848-9.5232c-14.7456 27.0336-14.1312 64.1024-11.6736 87.9616z m24.3712-162.9184c-0.8192 0-1.6384 0.1024-2.3552 0.3072l-33.3824 9.3184-317.952 89.088-3.8912-120.5248 104.3456-33.9968 252.5184-82.3296s13.312-2.9696 23.04 6.9632c9.4208 9.6256 14.1312 28.5696 13.5168 54.784-1.6384 73.216-34.6112 76.288-35.84 76.3904z" p-id="5502"></path></svg>