<?xml version="1.0" standalone="no"?><!DOCTYPE svg PUBLIC "-//W3C//DTD SVG 1.1//EN" "http://www.w3.org/Graphics/SVG/1.1/DTD/svg11.dtd"><svg t="1569840014122" class="icon" viewBox="0 0 1024 1024" version="1.1" xmlns="http://www.w3.org/2000/svg" p-id="6012" xmlns:xlink="http://www.w3.org/1999/xlink" width="128" height="128"><defs><style type="text/css"></style></defs><path d="M799.232 810.666667A84.906667 84.906667 0 0 0 810.666667 768V213.333333a85.333333 85.333333 0 0 0-85.333334-85.333333H267.434667A85.333333 85.333333 0 0 1 341.333333 85.333333h469.333334a85.333333 85.333333 0 0 1 85.333333 85.333334v554.666666a85.333333 85.333333 0 0 1-85.333333 85.333334h-11.434667zM213.333333 170.666667h469.333334a85.333333 85.333333 0 0 1 85.333333 85.333333v554.666667a85.333333 85.333333 0 0 1-85.333333 85.333333H213.333333a85.333333 85.333333 0 0 1-85.333333-85.333333V256a85.333333 85.333333 0 0 1 85.333333-85.333333z" p-id="6013"></path></svg>